<?xml version="1.0" standalone="no"?>
<!DOCTYPE svg PUBLIC "-//W3C//DTD SVG 20010904//EN"
 "http://www.w3.org/TR/2001/REC-SVG-20010904/DTD/svg10.dtd">
<svg version="1.0" xmlns="http://www.w3.org/2000/svg"
 width="700.000000pt" height="700.000000pt" viewBox="0 0 700.000000 700.000000"
 preserveAspectRatio="xMidYMid meet">
<metadata>
Created by potrace 1.11, written by Peter Selinger 2001-2013
</metadata>
<g transform="translate(0.000000,700.000000) scale(0.100000,-0.100000)"
fill="#000000" stroke="none">
<path d="M3305 6914 c-104 -46 -203 -91 -220 -99 -16 -7 -113 -50 -215 -95
-290 -128 -541 -240 -585 -260 -22 -10 -182 -81 -355 -158 -322 -143 -502
-223 -555 -247 -16 -7 -113 -50 -215 -95 -236 -105 -225 -100 -357 -159 -62
-28 -116 -51 -121 -51 -4 0 -17 -8 -28 -18 -19 -18 -19 -39 -18 -1023 1 -918
5 -1151 20 -1279 7 -62 22 -173 34 -250 40 -264 143 -624 250 -875 11 -27 26
-63 33 -80 66 -164 255 -505 375 -680 100 -145 260 -350 336 -431 240 -256
445 -436 691 -606 303 -210 707 -398 1048 -487 l79 -20 76 20 c972 263 1837
990 2331 1959 43 85 93 189 111 230 18 41 38 89 46 105 45 98 167 487 199 630
3 17 17 89 21 108 2 10 5 26 8 35 6 21 43 279 50 352 16 159 19 338 20 1271
l1 1015 -200 89 c-110 49 -237 106 -283 127 -45 21 -84 38 -86 38 -3 0 -33 13
-68 29 -35 16 -126 57 -203 91 -77 34 -158 70 -180 80 -22 10 -265 118 -540
240 -275 122 -518 230 -540 240 -22 10 -103 46 -180 80 -77 34 -158 70 -180
80 -196 88 -406 180 -408 179 -1 0 -87 -38 -192 -85z m1883 -2237 l222 -222
-1273 -1273 -1272 -1272 -637 636 -636 637 224 224 223 224 413 -411 413 -410
1045 1045 c575 575 1047 1045 1050 1045 3 0 105 -100 228 -223z"/>
</g>
</svg>
